# xmcd
#
# Track frame offsets: 
#        183
#        21285
#        50055
#        78880
#        97163
#        116435
#        138940
#        169768
#        187748
#        208603
#        234053
#
# Disc length: 3359 seconds
#
# Revision: 1
# Processed by: cddbd v1.5.2PL0 Copyright (c) Steve Scherf et al.
# Submitted via: ExactAudioCopy v0.99pb5
#
DISCID=860d1d0b
DTITLE=Various Artist - Bandes Original du Journal de Spirou
DYEAR=1988
DGENRE=Jazz
TTITLE0=Tony Hymas - Qrn sur Bretzelburg
TTITLE1=Stuart Elliott - Les baleines publiques
TTITLE2=Mike Cooper - Jerry contre KKK
TTITLE3=Philippe Deschepper - Choc au Louvre
TTITLE4=Steve Beresford - Attila au chateau
TTITLE5=Tony Coe - Chaminou et le krompire
TTITLE6=Michel Doneda - Sibylline en danger
TTITLE7=John Zorn - Nuit blanche pour les gorilles
TTITLE8=Tony Coe - Les malefices de l'oncle Hermes
TTITLE9=Max Eastley - Il est minuit Docteur Poche
TTITLE10=Tohban Djan - Le chinois a deux roues
EXTD=
EXTT0=
EXTT1=
EXTT2=
EXTT3=
EXTT4=
EXTT5=
EXTT6=
EXTT7=
EXTT8=
EXTT9=
EXTT10=
PLAYORDER=
